<mxfile host="app.diagrams.net" modified="2022-07-12T08:32:53.475Z" agent="5.0 (Windows NT 10.0; Win64; x64) AppleWebKit/537.36 (KHTML, like Gecko) Chrome/103.0.0.0 Safari/537.36" etag="fHnSxJoaJHbLMNoxy50I" version="20.0.4" type="github" pages="2">
  <diagram id="C5RBs43oDa-KdzZeNtuy" name="Water Sort Puzzle">
    <mxGraphModel dx="1339" dy="815" grid="1" gridSize="10" guides="1" tooltips="1" connect="1" arrows="1" fold="1" page="1" pageScale="1" pageWidth="1920" pageHeight="1200" background="none" math="0" shadow="0">
      <root>
        <mxCell id="WIyWlLk6GJQsqaUBKTNV-0" />
        <mxCell id="WIyWlLk6GJQsqaUBKTNV-1" parent="WIyWlLk6GJQsqaUBKTNV-0" />
        <mxCell id="-UPui0ApsHkDzABqv5SS-7" style="edgeStyle=orthogonalEdgeStyle;rounded=0;orthogonalLoop=1;jettySize=auto;html=1;exitX=0.5;exitY=0;exitDx=0;exitDy=0;entryX=0.5;entryY=1;entryDx=0;entryDy=0;entryPerimeter=0;" edge="1" parent="WIyWlLk6GJQsqaUBKTNV-1" source="zkfFHV4jXpPFQw0GAbJ--6" target="-UPui0ApsHkDzABqv5SS-79">
          <mxGeometry relative="1" as="geometry">
            <mxPoint x="890" y="681" as="targetPoint" />
          </mxGeometry>
        </mxCell>
        <mxCell id="zkfFHV4jXpPFQw0GAbJ--6" value="UIManager" style="swimlane;fontStyle=1;align=center;verticalAlign=top;childLayout=stackLayout;horizontal=1;startSize=26;horizontalStack=0;resizeParent=1;resizeLast=0;collapsible=1;marginBottom=0;rounded=0;shadow=0;strokeWidth=1;" parent="WIyWlLk6GJQsqaUBKTNV-1" vertex="1">
          <mxGeometry x="760" y="771" width="260" height="136" as="geometry">
            <mxRectangle x="130" y="380" width="160" height="26" as="alternateBounds" />
          </mxGeometry>
        </mxCell>
        <mxCell id="zkfFHV4jXpPFQw0GAbJ--7" value="+ Instance: UIManager " style="text;align=left;verticalAlign=top;spacingLeft=4;spacingRight=4;overflow=hidden;rotatable=0;points=[[0,0.5],[1,0.5]];portConstraint=eastwest;" parent="zkfFHV4jXpPFQw0GAbJ--6" vertex="1">
          <mxGeometry y="26" width="260" height="26" as="geometry" />
        </mxCell>
        <mxCell id="zkfFHV4jXpPFQw0GAbJ--8" value="- _levelCompletePanel: LevelCompletePanel  " style="text;align=left;verticalAlign=top;spacingLeft=4;spacingRight=4;overflow=hidden;rotatable=0;points=[[0,0.5],[1,0.5]];portConstraint=eastwest;rounded=0;shadow=0;html=0;" parent="zkfFHV4jXpPFQw0GAbJ--6" vertex="1">
          <mxGeometry y="52" width="260" height="28" as="geometry" />
        </mxCell>
        <mxCell id="-UPui0ApsHkDzABqv5SS-11" value="-_winEffect: GameObject " style="text;align=left;verticalAlign=top;spacingLeft=4;spacingRight=4;overflow=hidden;rotatable=0;points=[[0,0.5],[1,0.5]];portConstraint=eastwest;rounded=0;shadow=0;html=0;" vertex="1" parent="zkfFHV4jXpPFQw0GAbJ--6">
          <mxGeometry y="80" width="260" height="28" as="geometry" />
        </mxCell>
        <mxCell id="-UPui0ApsHkDzABqv5SS-17" style="text;align=left;verticalAlign=top;spacingLeft=4;spacingRight=4;overflow=hidden;rotatable=0;points=[[0,0.5],[1,0.5]];portConstraint=eastwest;rounded=0;shadow=0;html=0;" vertex="1" parent="zkfFHV4jXpPFQw0GAbJ--6">
          <mxGeometry y="108" width="260" height="28" as="geometry" />
        </mxCell>
        <mxCell id="-UPui0ApsHkDzABqv5SS-23" style="edgeStyle=orthogonalEdgeStyle;rounded=0;orthogonalLoop=1;jettySize=auto;html=1;entryX=1;entryY=0.5;entryDx=0;entryDy=0;" edge="1" parent="WIyWlLk6GJQsqaUBKTNV-1" source="-UPui0ApsHkDzABqv5SS-19" target="-UPui0ApsHkDzABqv5SS-79">
          <mxGeometry relative="1" as="geometry">
            <mxPoint x="1120" y="645.5" as="targetPoint" />
          </mxGeometry>
        </mxCell>
        <mxCell id="-UPui0ApsHkDzABqv5SS-19" value="Singleton&lt;T&gt;" style="swimlane;fontStyle=1;align=center;verticalAlign=top;childLayout=stackLayout;horizontal=1;startSize=26;horizontalStack=0;resizeParent=1;resizeParentMax=0;resizeLast=0;collapsible=1;marginBottom=0;" vertex="1" parent="WIyWlLk6GJQsqaUBKTNV-1">
          <mxGeometry x="1210" y="361" width="160" height="112" as="geometry" />
        </mxCell>
        <mxCell id="-UPui0ApsHkDzABqv5SS-20" value="+ Instance: T" style="text;strokeColor=none;fillColor=none;align=left;verticalAlign=top;spacingLeft=4;spacingRight=4;overflow=hidden;rotatable=0;points=[[0,0.5],[1,0.5]];portConstraint=eastwest;" vertex="1" parent="-UPui0ApsHkDzABqv5SS-19">
          <mxGeometry y="26" width="160" height="26" as="geometry" />
        </mxCell>
        <mxCell id="-UPui0ApsHkDzABqv5SS-21" value="" style="line;strokeWidth=1;fillColor=none;align=left;verticalAlign=middle;spacingTop=-1;spacingLeft=3;spacingRight=3;rotatable=0;labelPosition=right;points=[];portConstraint=eastwest;" vertex="1" parent="-UPui0ApsHkDzABqv5SS-19">
          <mxGeometry y="52" width="160" height="8" as="geometry" />
        </mxCell>
        <mxCell id="-UPui0ApsHkDzABqv5SS-22" value="# Awake()" style="text;strokeColor=none;fillColor=none;align=left;verticalAlign=top;spacingLeft=4;spacingRight=4;overflow=hidden;rotatable=0;points=[[0,0.5],[1,0.5]];portConstraint=eastwest;" vertex="1" parent="-UPui0ApsHkDzABqv5SS-19">
          <mxGeometry y="60" width="160" height="26" as="geometry" />
        </mxCell>
        <mxCell id="-UPui0ApsHkDzABqv5SS-78" value="# OnInit()" style="text;strokeColor=none;fillColor=none;align=left;verticalAlign=top;spacingLeft=4;spacingRight=4;overflow=hidden;rotatable=0;points=[[0,0.5],[1,0.5]];portConstraint=eastwest;" vertex="1" parent="-UPui0ApsHkDzABqv5SS-19">
          <mxGeometry y="86" width="160" height="26" as="geometry" />
        </mxCell>
        <mxCell id="-UPui0ApsHkDzABqv5SS-43" style="edgeStyle=orthogonalEdgeStyle;rounded=0;orthogonalLoop=1;jettySize=auto;html=1;entryX=0.494;entryY=1.038;entryDx=0;entryDy=0;entryPerimeter=0;" edge="1" parent="WIyWlLk6GJQsqaUBKTNV-1" source="-UPui0ApsHkDzABqv5SS-34" target="-UPui0ApsHkDzABqv5SS-78">
          <mxGeometry relative="1" as="geometry">
            <mxPoint x="1380" y="751" as="targetPoint" />
          </mxGeometry>
        </mxCell>
        <mxCell id="-UPui0ApsHkDzABqv5SS-34" value="ResourceManager" style="swimlane;fontStyle=1;align=center;verticalAlign=top;childLayout=stackLayout;horizontal=1;startSize=26;horizontalStack=0;resizeParent=1;resizeParentMax=0;resizeLast=0;collapsible=1;marginBottom=0;strokeColor=default;" vertex="1" parent="WIyWlLk6GJQsqaUBKTNV-1">
          <mxGeometry x="1190" y="771" width="160" height="164" as="geometry" />
        </mxCell>
        <mxCell id="-UPui0ApsHkDzABqv5SS-35" value="+ CoinsChanged: event" style="text;strokeColor=none;fillColor=none;align=left;verticalAlign=top;spacingLeft=4;spacingRight=4;overflow=hidden;rotatable=0;points=[[0,0.5],[1,0.5]];portConstraint=eastwest;" vertex="1" parent="-UPui0ApsHkDzABqv5SS-34">
          <mxGeometry y="26" width="160" height="26" as="geometry" />
        </mxCell>
        <mxCell id="-UPui0ApsHkDzABqv5SS-39" value="+ EnableAds: bool" style="text;strokeColor=none;fillColor=none;align=left;verticalAlign=top;spacingLeft=4;spacingRight=4;overflow=hidden;rotatable=0;points=[[0,0.5],[1,0.5]];portConstraint=eastwest;" vertex="1" parent="-UPui0ApsHkDzABqv5SS-34">
          <mxGeometry y="52" width="160" height="26" as="geometry" />
        </mxCell>
        <mxCell id="-UPui0ApsHkDzABqv5SS-38" value="+ NoAdsProductId : string" style="text;strokeColor=none;fillColor=none;align=left;verticalAlign=top;spacingLeft=4;spacingRight=4;overflow=hidden;rotatable=0;points=[[0,0.5],[1,0.5]];portConstraint=eastwest;" vertex="1" parent="-UPui0ApsHkDzABqv5SS-34">
          <mxGeometry y="78" width="160" height="26" as="geometry" />
        </mxCell>
        <mxCell id="-UPui0ApsHkDzABqv5SS-40" value="+ Coins: int" style="text;strokeColor=none;fillColor=none;align=left;verticalAlign=top;spacingLeft=4;spacingRight=4;overflow=hidden;rotatable=0;points=[[0,0.5],[1,0.5]];portConstraint=eastwest;" vertex="1" parent="-UPui0ApsHkDzABqv5SS-34">
          <mxGeometry y="104" width="160" height="26" as="geometry" />
        </mxCell>
        <mxCell id="-UPui0ApsHkDzABqv5SS-36" value="" style="line;strokeWidth=1;fillColor=none;align=left;verticalAlign=middle;spacingTop=-1;spacingLeft=3;spacingRight=3;rotatable=0;labelPosition=right;points=[];portConstraint=eastwest;" vertex="1" parent="-UPui0ApsHkDzABqv5SS-34">
          <mxGeometry y="130" width="160" height="8" as="geometry" />
        </mxCell>
        <mxCell id="-UPui0ApsHkDzABqv5SS-37" value="# OnInit()" style="text;strokeColor=none;fillColor=none;align=left;verticalAlign=top;spacingLeft=4;spacingRight=4;overflow=hidden;rotatable=0;points=[[0,0.5],[1,0.5]];portConstraint=eastwest;" vertex="1" parent="-UPui0ApsHkDzABqv5SS-34">
          <mxGeometry y="138" width="160" height="26" as="geometry" />
        </mxCell>
        <mxCell id="-UPui0ApsHkDzABqv5SS-44" value="ResourceManager" style="swimlane;fontStyle=1;align=center;verticalAlign=top;childLayout=stackLayout;horizontal=1;startSize=26;horizontalStack=0;resizeParent=1;resizeParentMax=0;resizeLast=0;collapsible=1;marginBottom=0;strokeColor=default;" vertex="1" parent="WIyWlLk6GJQsqaUBKTNV-1">
          <mxGeometry x="1430" y="771" width="330" height="320" as="geometry" />
        </mxCell>
        <mxCell id="-UPui0ApsHkDzABqv5SS-45" value="- _modeLvlAssets: List&lt;TextAsset&gt;" style="text;strokeColor=none;fillColor=none;align=left;verticalAlign=top;spacingLeft=4;spacingRight=4;overflow=hidden;rotatable=0;points=[[0,0.5],[1,0.5]];portConstraint=eastwest;" vertex="1" parent="-UPui0ApsHkDzABqv5SS-44">
          <mxGeometry y="26" width="330" height="26" as="geometry" />
        </mxCell>
        <mxCell id="-UPui0ApsHkDzABqv5SS-50" value="- _modeAndLevels: Dictionary&lt;GameMode,List&lt;Level&gt;&gt;" style="text;strokeColor=none;fillColor=none;align=left;verticalAlign=top;spacingLeft=4;spacingRight=4;overflow=hidden;rotatable=0;points=[[0,0.5],[1,0.5]];portConstraint=eastwest;" vertex="1" parent="-UPui0ApsHkDzABqv5SS-44">
          <mxGeometry y="52" width="330" height="26" as="geometry" />
        </mxCell>
        <mxCell id="-UPui0ApsHkDzABqv5SS-46" value="" style="line;strokeWidth=1;fillColor=none;align=left;verticalAlign=middle;spacingTop=-1;spacingLeft=3;spacingRight=3;rotatable=0;labelPosition=right;points=[];portConstraint=eastwest;" vertex="1" parent="-UPui0ApsHkDzABqv5SS-44">
          <mxGeometry y="78" width="330" height="8" as="geometry" />
        </mxCell>
        <mxCell id="-UPui0ApsHkDzABqv5SS-47" value="- InitLevels()" style="text;strokeColor=none;fillColor=none;align=left;verticalAlign=top;spacingLeft=4;spacingRight=4;overflow=hidden;rotatable=0;points=[[0,0.5],[1,0.5]];portConstraint=eastwest;" vertex="1" parent="-UPui0ApsHkDzABqv5SS-44">
          <mxGeometry y="86" width="330" height="26" as="geometry" />
        </mxCell>
        <mxCell id="-UPui0ApsHkDzABqv5SS-51" value="+ GetLevels(GameMode): IEnumerable&lt;Level&gt;" style="text;strokeColor=none;fillColor=none;align=left;verticalAlign=top;spacingLeft=4;spacingRight=4;overflow=hidden;rotatable=0;points=[[0,0.5],[1,0.5]];portConstraint=eastwest;" vertex="1" parent="-UPui0ApsHkDzABqv5SS-44">
          <mxGeometry y="112" width="330" height="26" as="geometry" />
        </mxCell>
        <mxCell id="-UPui0ApsHkDzABqv5SS-55" value="+ GetLevel(GameMode, int): Level" style="text;strokeColor=none;fillColor=none;align=left;verticalAlign=top;spacingLeft=4;spacingRight=4;overflow=hidden;rotatable=0;points=[[0,0.5],[1,0.5]];portConstraint=eastwest;" vertex="1" parent="-UPui0ApsHkDzABqv5SS-44">
          <mxGeometry y="138" width="330" height="26" as="geometry" />
        </mxCell>
        <mxCell id="-UPui0ApsHkDzABqv5SS-54" value="+ IsLevelLocked(GameMode, int): bool" style="text;strokeColor=none;fillColor=none;align=left;verticalAlign=top;spacingLeft=4;spacingRight=4;overflow=hidden;rotatable=0;points=[[0,0.5],[1,0.5]];portConstraint=eastwest;" vertex="1" parent="-UPui0ApsHkDzABqv5SS-44">
          <mxGeometry y="164" width="330" height="26" as="geometry" />
        </mxCell>
        <mxCell id="-UPui0ApsHkDzABqv5SS-53" value="+ GetCompletedLevel(GameMode): int" style="text;strokeColor=none;fillColor=none;align=left;verticalAlign=top;spacingLeft=4;spacingRight=4;overflow=hidden;rotatable=0;points=[[0,0.5],[1,0.5]];portConstraint=eastwest;" vertex="1" parent="-UPui0ApsHkDzABqv5SS-44">
          <mxGeometry y="190" width="330" height="26" as="geometry" />
        </mxCell>
        <mxCell id="-UPui0ApsHkDzABqv5SS-57" value="+ CompleteLevel(GameMode, int)" style="text;strokeColor=none;fillColor=none;align=left;verticalAlign=top;spacingLeft=4;spacingRight=4;overflow=hidden;rotatable=0;points=[[0,0.5],[1,0.5]];portConstraint=eastwest;" vertex="1" parent="-UPui0ApsHkDzABqv5SS-44">
          <mxGeometry y="216" width="330" height="26" as="geometry" />
        </mxCell>
        <mxCell id="-UPui0ApsHkDzABqv5SS-56" value="+ HasLevel(GameMode, int): bool" style="text;strokeColor=none;fillColor=none;align=left;verticalAlign=top;spacingLeft=4;spacingRight=4;overflow=hidden;rotatable=0;points=[[0,0.5],[1,0.5]];portConstraint=eastwest;" vertex="1" parent="-UPui0ApsHkDzABqv5SS-44">
          <mxGeometry y="242" width="330" height="26" as="geometry" />
        </mxCell>
        <mxCell id="-UPui0ApsHkDzABqv5SS-59" value="+ GetLevel(GameMode): Level" style="text;strokeColor=none;fillColor=none;align=left;verticalAlign=top;spacingLeft=4;spacingRight=4;overflow=hidden;rotatable=0;points=[[0,0.5],[1,0.5]];portConstraint=eastwest;" vertex="1" parent="-UPui0ApsHkDzABqv5SS-44">
          <mxGeometry y="268" width="330" height="26" as="geometry" />
        </mxCell>
        <mxCell id="-UPui0ApsHkDzABqv5SS-58" style="text;strokeColor=none;fillColor=none;align=left;verticalAlign=top;spacingLeft=4;spacingRight=4;overflow=hidden;rotatable=0;points=[[0,0.5],[1,0.5]];portConstraint=eastwest;" vertex="1" parent="-UPui0ApsHkDzABqv5SS-44">
          <mxGeometry y="294" width="330" height="26" as="geometry" />
        </mxCell>
        <mxCell id="-UPui0ApsHkDzABqv5SS-74" value="GameMode" style="swimlane;fontStyle=0;childLayout=stackLayout;horizontal=1;startSize=26;fillColor=none;horizontalStack=0;resizeParent=1;resizeParentMax=0;resizeLast=0;collapsible=1;marginBottom=0;strokeColor=default;" vertex="1" parent="WIyWlLk6GJQsqaUBKTNV-1">
          <mxGeometry x="1490" y="591" width="140" height="52" as="geometry" />
        </mxCell>
        <mxCell id="-UPui0ApsHkDzABqv5SS-75" value="Easy, Middle, Hard" style="text;strokeColor=none;fillColor=none;align=left;verticalAlign=top;spacingLeft=4;spacingRight=4;overflow=hidden;rotatable=0;points=[[0,0.5],[1,0.5]];portConstraint=eastwest;" vertex="1" parent="-UPui0ApsHkDzABqv5SS-74">
          <mxGeometry y="26" width="140" height="26" as="geometry" />
        </mxCell>
        <mxCell id="-UPui0ApsHkDzABqv5SS-79" value="&lt;span style=&quot;font-weight: 700;&quot;&gt;MonoBehaviour&lt;/span&gt;" style="html=1;strokeColor=default;" vertex="1" parent="WIyWlLk6GJQsqaUBKTNV-1">
          <mxGeometry x="810" y="392" width="160" height="50" as="geometry" />
        </mxCell>
        <mxCell id="-UPui0ApsHkDzABqv5SS-84" style="edgeStyle=orthogonalEdgeStyle;rounded=0;orthogonalLoop=1;jettySize=auto;html=1;entryX=0.5;entryY=0;entryDx=0;entryDy=0;" edge="1" parent="WIyWlLk6GJQsqaUBKTNV-1" source="-UPui0ApsHkDzABqv5SS-80" target="-UPui0ApsHkDzABqv5SS-79">
          <mxGeometry relative="1" as="geometry" />
        </mxCell>
        <mxCell id="-UPui0ApsHkDzABqv5SS-80" value="Splash" style="swimlane;fontStyle=1;align=center;verticalAlign=top;childLayout=stackLayout;horizontal=1;startSize=26;horizontalStack=0;resizeParent=1;resizeParentMax=0;resizeLast=0;collapsible=1;marginBottom=0;strokeColor=default;" vertex="1" parent="WIyWlLk6GJQsqaUBKTNV-1">
          <mxGeometry x="150" y="120" width="160" height="52" as="geometry" />
        </mxCell>
        <mxCell id="-UPui0ApsHkDzABqv5SS-83" value="- Start()" style="text;strokeColor=none;fillColor=none;align=left;verticalAlign=top;spacingLeft=4;spacingRight=4;overflow=hidden;rotatable=0;points=[[0,0.5],[1,0.5]];portConstraint=eastwest;" vertex="1" parent="-UPui0ApsHkDzABqv5SS-80">
          <mxGeometry y="26" width="160" height="26" as="geometry" />
        </mxCell>
        <mxCell id="-UPui0ApsHkDzABqv5SS-91" style="edgeStyle=orthogonalEdgeStyle;rounded=0;orthogonalLoop=1;jettySize=auto;html=1;entryX=0.5;entryY=0;entryDx=0;entryDy=0;" edge="1" parent="WIyWlLk6GJQsqaUBKTNV-1" source="-UPui0ApsHkDzABqv5SS-85" target="-UPui0ApsHkDzABqv5SS-19">
          <mxGeometry relative="1" as="geometry" />
        </mxCell>
        <mxCell id="-UPui0ApsHkDzABqv5SS-85" value="SharedUIManager" style="swimlane;fontStyle=1;childLayout=stackLayout;horizontal=1;startSize=26;fillColor=none;horizontalStack=0;resizeParent=1;resizeParentMax=0;resizeLast=0;collapsible=1;marginBottom=0;strokeColor=default;" vertex="1" parent="WIyWlLk6GJQsqaUBKTNV-1">
          <mxGeometry x="140" y="236" width="190" height="156" as="geometry" />
        </mxCell>
        <mxCell id="-UPui0ApsHkDzABqv5SS-86" value="+ ConsentPanel: ConsentPanel" style="text;strokeColor=none;fillColor=none;align=left;verticalAlign=top;spacingLeft=4;spacingRight=4;overflow=hidden;rotatable=0;points=[[0,0.5],[1,0.5]];portConstraint=eastwest;" vertex="1" parent="-UPui0ApsHkDzABqv5SS-85">
          <mxGeometry y="26" width="190" height="26" as="geometry" />
        </mxCell>
        <mxCell id="-UPui0ApsHkDzABqv5SS-87" value="+ PopUpPanel: PopUpPanel" style="text;strokeColor=none;fillColor=none;align=left;verticalAlign=top;spacingLeft=4;spacingRight=4;overflow=hidden;rotatable=0;points=[[0,0.5],[1,0.5]];portConstraint=eastwest;" vertex="1" parent="-UPui0ApsHkDzABqv5SS-85">
          <mxGeometry y="52" width="190" height="26" as="geometry" />
        </mxCell>
        <mxCell id="-UPui0ApsHkDzABqv5SS-88" value="+ LoadingPanel: LoadingPanel" style="text;strokeColor=none;fillColor=none;align=left;verticalAlign=top;spacingLeft=4;spacingRight=4;overflow=hidden;rotatable=0;points=[[0,0.5],[1,0.5]];portConstraint=eastwest;" vertex="1" parent="-UPui0ApsHkDzABqv5SS-85">
          <mxGeometry y="78" width="190" height="26" as="geometry" />
        </mxCell>
        <mxCell id="-UPui0ApsHkDzABqv5SS-89" value="+ RatingPopUp: RatingPopUp" style="text;strokeColor=none;fillColor=none;align=left;verticalAlign=top;spacingLeft=4;spacingRight=4;overflow=hidden;rotatable=0;points=[[0,0.5],[1,0.5]];portConstraint=eastwest;" vertex="1" parent="-UPui0ApsHkDzABqv5SS-85">
          <mxGeometry y="104" width="190" height="26" as="geometry" />
        </mxCell>
        <mxCell id="-UPui0ApsHkDzABqv5SS-90" value="+ PausePanel: PausePanel" style="text;strokeColor=none;fillColor=none;align=left;verticalAlign=top;spacingLeft=4;spacingRight=4;overflow=hidden;rotatable=0;points=[[0,0.5],[1,0.5]];portConstraint=eastwest;" vertex="1" parent="-UPui0ApsHkDzABqv5SS-85">
          <mxGeometry y="130" width="190" height="26" as="geometry" />
        </mxCell>
        <mxCell id="-UPui0ApsHkDzABqv5SS-96" value="ShowHidable" style="swimlane;fontStyle=1;align=center;verticalAlign=top;childLayout=stackLayout;horizontal=1;startSize=26;horizontalStack=0;resizeParent=1;resizeParentMax=0;resizeLast=0;collapsible=1;marginBottom=0;strokeColor=default;" vertex="1" parent="WIyWlLk6GJQsqaUBKTNV-1">
          <mxGeometry x="500" y="470" width="240" height="320" as="geometry" />
        </mxCell>
        <mxCell id="-UPui0ApsHkDzABqv5SS-97" value="+ ShowStateChanged: event" style="text;strokeColor=none;fillColor=none;align=left;verticalAlign=top;spacingLeft=4;spacingRight=4;overflow=hidden;rotatable=0;points=[[0,0.5],[1,0.5]];portConstraint=eastwest;" vertex="1" parent="-UPui0ApsHkDzABqv5SS-96">
          <mxGeometry y="26" width="240" height="26" as="geometry" />
        </mxCell>
        <mxCell id="-UPui0ApsHkDzABqv5SS-102" value="# SHOW_HASH: int" style="text;strokeColor=none;fillColor=none;align=left;verticalAlign=top;spacingLeft=4;spacingRight=4;overflow=hidden;rotatable=0;points=[[0,0.5],[1,0.5]];portConstraint=eastwest;" vertex="1" parent="-UPui0ApsHkDzABqv5SS-96">
          <mxGeometry y="52" width="240" height="26" as="geometry" />
        </mxCell>
        <mxCell id="-UPui0ApsHkDzABqv5SS-101" value="# HIDE_HASH: int" style="text;strokeColor=none;fillColor=none;align=left;verticalAlign=top;spacingLeft=4;spacingRight=4;overflow=hidden;rotatable=0;points=[[0,0.5],[1,0.5]];portConstraint=eastwest;" vertex="1" parent="-UPui0ApsHkDzABqv5SS-96">
          <mxGeometry y="78" width="240" height="26" as="geometry" />
        </mxCell>
        <mxCell id="-UPui0ApsHkDzABqv5SS-100" value="# anim: Animator" style="text;strokeColor=none;fillColor=none;align=left;verticalAlign=top;spacingLeft=4;spacingRight=4;overflow=hidden;rotatable=0;points=[[0,0.5],[1,0.5]];portConstraint=eastwest;" vertex="1" parent="-UPui0ApsHkDzABqv5SS-96">
          <mxGeometry y="104" width="240" height="26" as="geometry" />
        </mxCell>
        <mxCell id="-UPui0ApsHkDzABqv5SS-105" value="# dependObjects: List&lt;GameObject&gt;" style="text;strokeColor=none;fillColor=none;align=left;verticalAlign=top;spacingLeft=4;spacingRight=4;overflow=hidden;rotatable=0;points=[[0,0.5],[1,0.5]];portConstraint=eastwest;" vertex="1" parent="-UPui0ApsHkDzABqv5SS-96">
          <mxGeometry y="130" width="240" height="26" as="geometry" />
        </mxCell>
        <mxCell id="-UPui0ApsHkDzABqv5SS-104" value="# currentShowState: ShowState" style="text;strokeColor=none;fillColor=none;align=left;verticalAlign=top;spacingLeft=4;spacingRight=4;overflow=hidden;rotatable=0;points=[[0,0.5],[1,0.5]];portConstraint=eastwest;" vertex="1" parent="-UPui0ApsHkDzABqv5SS-96">
          <mxGeometry y="156" width="240" height="26" as="geometry" />
        </mxCell>
        <mxCell id="-UPui0ApsHkDzABqv5SS-103" value="+ Showing: bool" style="text;strokeColor=none;fillColor=none;align=left;verticalAlign=top;spacingLeft=4;spacingRight=4;overflow=hidden;rotatable=0;points=[[0,0.5],[1,0.5]];portConstraint=eastwest;" vertex="1" parent="-UPui0ApsHkDzABqv5SS-96">
          <mxGeometry y="182" width="240" height="26" as="geometry" />
        </mxCell>
        <mxCell id="-UPui0ApsHkDzABqv5SS-111" value="+ CurrentShowState: ShowState" style="text;strokeColor=none;fillColor=none;align=left;verticalAlign=top;spacingLeft=4;spacingRight=4;overflow=hidden;rotatable=0;points=[[0,0.5],[1,0.5]];portConstraint=eastwest;" vertex="1" parent="-UPui0ApsHkDzABqv5SS-96">
          <mxGeometry y="208" width="240" height="26" as="geometry" />
        </mxCell>
        <mxCell id="-UPui0ApsHkDzABqv5SS-98" value="" style="line;strokeWidth=1;fillColor=none;align=left;verticalAlign=middle;spacingTop=-1;spacingLeft=3;spacingRight=3;rotatable=0;labelPosition=right;points=[];portConstraint=eastwest;" vertex="1" parent="-UPui0ApsHkDzABqv5SS-96">
          <mxGeometry y="234" width="240" height="8" as="geometry" />
        </mxCell>
        <mxCell id="-UPui0ApsHkDzABqv5SS-99" value="+ Show(bool, Action)" style="text;strokeColor=none;fillColor=none;align=left;verticalAlign=top;spacingLeft=4;spacingRight=4;overflow=hidden;rotatable=0;points=[[0,0.5],[1,0.5]];portConstraint=eastwest;" vertex="1" parent="-UPui0ApsHkDzABqv5SS-96">
          <mxGeometry y="242" width="240" height="26" as="geometry" />
        </mxCell>
        <mxCell id="-UPui0ApsHkDzABqv5SS-114" value="+ Hide(bool, Action)" style="text;strokeColor=none;fillColor=none;align=left;verticalAlign=top;spacingLeft=4;spacingRight=4;overflow=hidden;rotatable=0;points=[[0,0.5],[1,0.5]];portConstraint=eastwest;" vertex="1" parent="-UPui0ApsHkDzABqv5SS-96">
          <mxGeometry y="268" width="240" height="26" as="geometry" />
        </mxCell>
        <mxCell id="-UPui0ApsHkDzABqv5SS-113" value="+ Exit()" style="text;strokeColor=none;fillColor=none;align=left;verticalAlign=top;spacingLeft=4;spacingRight=4;overflow=hidden;rotatable=0;points=[[0,0.5],[1,0.5]];portConstraint=eastwest;" vertex="1" parent="-UPui0ApsHkDzABqv5SS-96">
          <mxGeometry y="294" width="240" height="26" as="geometry" />
        </mxCell>
        <mxCell id="-UPui0ApsHkDzABqv5SS-106" value="ShowState" style="swimlane;fontStyle=0;childLayout=stackLayout;horizontal=1;startSize=26;fillColor=none;horizontalStack=0;resizeParent=1;resizeParentMax=0;resizeLast=0;collapsible=1;marginBottom=0;strokeColor=default;" vertex="1" parent="WIyWlLk6GJQsqaUBKTNV-1">
          <mxGeometry x="500" y="340" width="140" height="74" as="geometry" />
        </mxCell>
        <mxCell id="-UPui0ApsHkDzABqv5SS-107" value="ShowAnimation, Show," style="text;strokeColor=none;fillColor=none;align=left;verticalAlign=top;spacingLeft=4;spacingRight=4;overflow=hidden;rotatable=0;points=[[0,0.5],[1,0.5]];portConstraint=eastwest;" vertex="1" parent="-UPui0ApsHkDzABqv5SS-106">
          <mxGeometry y="26" width="140" height="24" as="geometry" />
        </mxCell>
        <mxCell id="-UPui0ApsHkDzABqv5SS-109" value="HideAnimation, Hide" style="text;strokeColor=none;fillColor=none;align=left;verticalAlign=top;spacingLeft=4;spacingRight=4;overflow=hidden;rotatable=0;points=[[0,0.5],[1,0.5]];portConstraint=eastwest;" vertex="1" parent="-UPui0ApsHkDzABqv5SS-106">
          <mxGeometry y="50" width="140" height="24" as="geometry" />
        </mxCell>
      </root>
    </mxGraphModel>
  </diagram>
  <diagram id="oa3JsNeKZShNjGYw7QZx" name="Test UI">
    <mxGraphModel dx="1339" dy="815" grid="1" gridSize="10" guides="1" tooltips="1" connect="1" arrows="1" fold="1" page="1" pageScale="1" pageWidth="827" pageHeight="1169" math="0" shadow="0">
      <root>
        <mxCell id="0" />
        <mxCell id="1" parent="0" />
      </root>
    </mxGraphModel>
  </diagram>
</mxfile>
